<svg id="visual" viewBox="0 0 900 600" width="900" height="600" xmlns="http://www.w3.org/2000/svg" xmlns:xlink="http://www.w3.org/1999/xlink" version="1.1"><rect x="0" y="0" width="900" height="600" fill="#0c1114"></rect><path d="M0 392L21.5 389.2C43 386.3 86 380.7 128.8 378.2C171.7 375.7 214.3 376.3 257.2 380.5C300 384.7 343 392.3 385.8 404.3C428.7 416.3 471.3 432.7 514.2 433.3C557 434 600 419 642.8 409.8C685.7 400.7 728.3 397.3 771.2 395.7C814 394 857 394 878.5 394L900 394L900 601L878.5 601C857 601 814 601 771.2 601C728.3 601 685.7 601 642.8 601C600 601 557 601 514.2 601C471.3 601 428.7 601 385.8 601C343 601 300 601 257.2 601C214.3 601 171.7 601 128.8 601C86 601 43 601 21.5 601L0 601Z" fill="#f31000"></path><path d="M0 451L21.5 450.2C43 449.3 86 447.7 128.8 444.8C171.7 442 214.3 438 257.2 440.8C300 443.7 343 453.3 385.8 449C428.7 444.7 471.3 426.3 514.2 427.3C557 428.3 600 448.7 642.8 452.5C685.7 456.3 728.3 443.7 771.2 444.2C814 444.7 857 458.3 878.5 465.2L900 472L900 601L878.5 601C857 601 814 601 771.2 601C728.3 601 685.7 601 642.8 601C600 601 557 601 514.2 601C471.3 601 428.7 601 385.8 601C343 601 300 601 257.2 601C214.3 601 171.7 601 128.8 601C86 601 43 601 21.5 601L0 601Z" fill="#fa0025"></path><path d="M0 509L21.5 497.3C43 485.7 86 462.3 128.8 455.5C171.7 448.7 214.3 458.3 257.2 464C300 469.7 343 471.3 385.8 470.2C428.7 469 471.3 465 514.2 467.8C557 470.7 600 480.3 642.8 478.8C685.7 477.3 728.3 464.7 771.2 465.2C814 465.7 857 479.3 878.5 486.2L900 493L900 601L878.5 601C857 601 814 601 771.2 601C728.3 601 685.7 601 642.8 601C600 601 557 601 514.2 601C471.3 601 428.7 601 385.8 601C343 601 300 601 257.2 601C214.3 601 171.7 601 128.8 601C86 601 43 601 21.5 601L0 601Z" fill="#fe003d"></path><path d="M0 482L21.5 486C43 490 86 498 128.8 506.3C171.7 514.7 214.3 523.3 257.2 524.5C300 525.7 343 519.3 385.8 514.7C428.7 510 471.3 507 514.2 506.5C557 506 600 508 642.8 513.2C685.7 518.3 728.3 526.7 771.2 529.3C814 532 857 529 878.5 527.5L900 526L900 601L878.5 601C857 601 814 601 771.2 601C728.3 601 685.7 601 642.8 601C600 601 557 601 514.2 601C471.3 601 428.7 601 385.8 601C343 601 300 601 257.2 601C214.3 601 171.7 601 128.8 601C86 601 43 601 21.5 601L0 601Z" fill="#ff0052"></path><path d="M0 562L21.5 560.3C43 558.7 86 555.3 128.8 551C171.7 546.7 214.3 541.3 257.2 539.2C300 537 343 538 385.8 541.7C428.7 545.3 471.3 551.7 514.2 552.5C557 553.3 600 548.7 642.8 543.7C685.7 538.7 728.3 533.3 771.2 531.7C814 530 857 532 878.5 533L900 534L900 601L878.5 601C857 601 814 601 771.2 601C728.3 601 685.7 601 642.8 601C600 601 557 601 514.2 601C471.3 601 428.7 601 385.8 601C343 601 300 601 257.2 601C214.3 601 171.7 601 128.8 601C86 601 43 601 21.5 601L0 601Z" fill="#ff0066"></path></svg>